<svg xmlns="http://www.w3.org/2000/svg" width="1200" height="1500" viewBox="0 0 1200 1500">
  <defs>
    <linearGradient id="bg" x1="0" y1="0" x2="0" y2="1">
      <stop offset="0" stop-color="#0B0B0F"/>
      <stop offset="1" stop-color="#121218"/>
    </linearGradient>
    <radialGradient id="spot1" cx="20%" cy="16%" r="55%">
      <stop offset="0" stop-color="#7B3FF2" stop-opacity="0.26"/>
      <stop offset="1" stop-color="#7B3FF2" stop-opacity="0"/>
    </radialGradient>
    <radialGradient id="spot2" cx="78%" cy="18%" r="50%">
      <stop offset="0" stop-color="#FF7A18" stop-opacity="0.16"/>
      <stop offset="1" stop-color="#FF7A18" stop-opacity="0"/>
    </radialGradient>
    <radialGradient id="spot3" cx="60%" cy="10%" r="48%">
      <stop offset="0" stop-color="#FF3D8B" stop-opacity="0.18"/>
      <stop offset="1" stop-color="#FF3D8B" stop-opacity="0"/>
    </radialGradient>
    <radialGradient id="floor" cx="50%" cy="78%" r="58%">
      <stop offset="0" stop-color="#FFFFFF" stop-opacity="0.10"/>
      <stop offset="1" stop-color="#FFFFFF" stop-opacity="0"/>
    </radialGradient>
    <filter id="grain">
      <feTurbulence type="fractalNoise" baseFrequency="0.95" numOctaves="3" stitchTiles="stitch" />
      <feColorMatrix type="matrix" values="
        1 0 0 0 0
        0 1 0 0 0
        0 0 1 0 0
        0 0 0 0.08 0"/>
    </filter>
    <filter id="shadow" x="-30%" y="-30%" width="160%" height="160%">
      <feGaussianBlur stdDeviation="20" result="b"/>
      <feColorMatrix in="b" type="matrix" values="
        0 0 0 0 0
        0 0 0 0 0
        0 0 0 0 0
        0 0 0 0.50 0" result="s"/>
      <feOffset in="s" dx="0" dy="10"/>
      <feMerge>
        <feMergeNode/>
        <feMergeNode in="SourceGraphic"/>
      </feMerge>
    </filter>
    <linearGradient id="shirt" x1="0" y1="0" x2="1" y2="1">
      <stop offset="0" stop-color="#1B1B28"/>
      <stop offset="0.55" stop-color="#0E0E15"/>
      <stop offset="1" stop-color="#1A1A26"/>
    </linearGradient>
    <linearGradient id="trim" x1="0" y1="0" x2="1" y2="0">
      <stop offset="0" stop-color="#FF3D8B" stop-opacity="0.22"/>
      <stop offset="0.55" stop-color="#7B3FF2" stop-opacity="0.28"/>
      <stop offset="1" stop-color="#FF7A18" stop-opacity="0.22"/>
    </linearGradient>
  </defs>
  <rect width="1200" height="1500" fill="url(#bg)"/>
  <rect width="1200" height="1500" fill="url(#spot1)"/>
  <rect width="1200" height="1500" fill="url(#spot2)"/>
  <rect width="1200" height="1500" fill="url(#spot3)"/>
  <rect width="1200" height="1500" fill="url(#floor)"/>
  <rect width="1200" height="1500" filter="url(#grain)" opacity="0.55"/>

  <ellipse cx="600" cy="1090" rx="240" ry="66" fill="#000000" opacity="0.55" filter="url(#shadow)"/>

  <!-- Slightly shorter shirt silhouette to suggest kids line -->
  <g filter="url(#shadow)">
    <path d="M390 440
      C355 468 332 492 300 512
      C276 526 250 538 230 550
      L290 705
      C320 688 340 675 365 660
      L365 1100
      C365 1142 397 1174 439 1174
      L761 1174
      C803 1174 835 1142 835 1100
      L835 660
      C860 675 880 688 910 705
      L970 550
      C950 538 924 526 900 512
      C868 492 845 468 810 440
      C772 408 738 388 700 376
      C692 430 650 466 600 466
      C550 466 508 430 500 376
      C462 388 428 408 390 440Z"
      fill="url(#shirt)"/>
    <path d="M490 374
      C500 450 545 498 600 498
      C655 498 700 450 710 374"
      fill="none" stroke="url(#trim)" stroke-width="14" stroke-linecap="round"/>
  </g>

  <g font-family="Bebas Neue, Arial, sans-serif" fill="#F2F2F7">
    <text x="80" y="160" font-size="56" letter-spacing="6" opacity="0.92">ARQUIBANCADA KIDS</text>
    <text x="80" y="210" font-size="22" letter-spacing="2" opacity="0.65">
      Visual moderno, levemente mais vibrante, mantendo elegancia e coerencia com a marca.
    </text>
  </g>
</svg>
