<svg xmlns="http://www.w3.org/2000/svg" width="1200" height="1500" viewBox="0 0 1200 1500">
  <defs>
    <linearGradient id="bg" x1="0" y1="0" x2="0" y2="1">
      <stop offset="0" stop-color="#0B0B0F"/>
      <stop offset="1" stop-color="#121218"/>
    </linearGradient>
    <radialGradient id="warm" cx="45%" cy="14%" r="65%">
      <stop offset="0" stop-color="#FF7A18" stop-opacity="0.16"/>
      <stop offset="0.5" stop-color="#FFC300" stop-opacity="0.08"/>
      <stop offset="1" stop-color="#FF7A18" stop-opacity="0"/>
    </radialGradient>
    <radialGradient id="mag" cx="78%" cy="18%" r="55%">
      <stop offset="0" stop-color="#FF3D8B" stop-opacity="0.10"/>
      <stop offset="1" stop-color="#FF3D8B" stop-opacity="0"/>
    </radialGradient>
    <radialGradient id="floor" cx="50%" cy="78%" r="60%">
      <stop offset="0" stop-color="#FFFFFF" stop-opacity="0.10"/>
      <stop offset="1" stop-color="#FFFFFF" stop-opacity="0"/>
    </radialGradient>
    <filter id="grain">
      <feTurbulence type="fractalNoise" baseFrequency="0.88" numOctaves="3" stitchTiles="stitch" />
      <feColorMatrix type="matrix" values="
        1 0 0 0 0
        0 1 0 0 0
        0 0 1 0 0
        0 0 0 0.08 0"/>
    </filter>
    <filter id="shadow" x="-30%" y="-30%" width="160%" height="160%">
      <feGaussianBlur stdDeviation="22" result="b"/>
      <feColorMatrix in="b" type="matrix" values="
        0 0 0 0 0
        0 0 0 0 0
        0 0 0 0 0
        0 0 0 0.55 0" result="s"/>
      <feOffset in="s" dx="0" dy="10"/>
      <feMerge>
        <feMergeNode/>
        <feMergeNode in="SourceGraphic"/>
      </feMerge>
    </filter>
    <linearGradient id="shirt" x1="0" y1="0" x2="1" y2="1">
      <stop offset="0" stop-color="#1A1A22"/>
      <stop offset="0.55" stop-color="#0D0D13"/>
      <stop offset="1" stop-color="#191925"/>
    </linearGradient>
    <linearGradient id="trim" x1="0" y1="0" x2="1" y2="0">
      <stop offset="0" stop-color="#FF7A18" stop-opacity="0.20"/>
      <stop offset="0.55" stop-color="#FFC300" stop-opacity="0.22"/>
      <stop offset="1" stop-color="#FF7A18" stop-opacity="0.20"/>
    </linearGradient>
  </defs>
  <rect width="1200" height="1500" fill="url(#bg)"/>
  <rect width="1200" height="1500" fill="url(#warm)"/>
  <rect width="1200" height="1500" fill="url(#mag)"/>
  <rect width="1200" height="1500" fill="url(#floor)"/>
  <rect width="1200" height="1500" filter="url(#grain)" opacity="0.55"/>

  <ellipse cx="600" cy="1090" rx="265" ry="74" fill="#000000" opacity="0.58" filter="url(#shadow)"/>

  <g filter="url(#shadow)">
    <path d="M365 430
      C330 462 305 488 270 510
      C245 525 225 535 210 545
      L270 710
      C300 690 322 675 345 660
      L345 1120
      C345 1162 380 1198 422 1198
      L778 1198
      C820 1198 855 1162 855 1120
      L855 660
      C878 675 900 690 930 710
      L990 545
      C975 535 955 525 930 510
      C895 488 870 462 835 430
      C792 390 752 365 710 350
      C700 420 655 465 600 465
      C545 465 500 420 490 350
      C448 365 408 390 365 430Z"
      fill="url(#shirt)"/>
    <path d="M470 345
      C480 435 535 492 600 492
      C665 492 720 435 730 345"
      fill="none" stroke="url(#trim)" stroke-width="14" stroke-linecap="round"/>
  </g>

  <g font-family="Bebas Neue, Arial, sans-serif" fill="#F2F2F7">
    <text x="80" y="160" font-size="56" letter-spacing="6" opacity="0.92">CLASSICOS DO FUTEBOL</text>
    <text x="80" y="210" font-size="22" letter-spacing="2" opacity="0.65">
      Iluminacao mais quente, atmosfera levemente nostalgica, sensacao de tradicao.
    </text>
  </g>
</svg>
