<svg xmlns="http://www.w3.org/2000/svg" width="1200" height="1500" viewBox="0 0 1200 1500">
  <defs>
    <linearGradient id="bg" x1="0" y1="0" x2="0" y2="1">
      <stop offset="0" stop-color="#0B0B0F"/>
      <stop offset="1" stop-color="#121218"/>
    </linearGradient>
    <radialGradient id="spot1" cx="30%" cy="16%" r="55%">
      <stop offset="0" stop-color="#7B3FF2" stop-opacity="0.18"/>
      <stop offset="1" stop-color="#7B3FF2" stop-opacity="0"/>
    </radialGradient>
    <radialGradient id="spot2" cx="78%" cy="14%" r="58%">
      <stop offset="0" stop-color="#FF3D8B" stop-opacity="0.16"/>
      <stop offset="1" stop-color="#FF3D8B" stop-opacity="0"/>
    </radialGradient>
    <radialGradient id="floor" cx="50%" cy="78%" r="62%">
      <stop offset="0" stop-color="#FFFFFF" stop-opacity="0.10"/>
      <stop offset="1" stop-color="#FFFFFF" stop-opacity="0"/>
    </radialGradient>
    <filter id="grain">
      <feTurbulence type="fractalNoise" baseFrequency="0.9" numOctaves="3" stitchTiles="stitch" />
      <feColorMatrix type="matrix" values="
        1 0 0 0 0
        0 1 0 0 0
        0 0 1 0 0
        0 0 0 0.08 0"/>
    </filter>
    <filter id="shadow" x="-30%" y="-30%" width="160%" height="160%">
      <feGaussianBlur stdDeviation="20" result="b"/>
      <feColorMatrix in="b" type="matrix" values="
        0 0 0 0 0
        0 0 0 0 0
        0 0 0 0 0
        0 0 0 0.52 0" result="s"/>
      <feOffset in="s" dx="0" dy="10"/>
      <feMerge>
        <feMergeNode/>
        <feMergeNode in="SourceGraphic"/>
      </feMerge>
    </filter>
    <linearGradient id="case" x1="0" y1="0" x2="1" y2="1">
      <stop offset="0" stop-color="#1A1A25"/>
      <stop offset="1" stop-color="#0E0E15"/>
    </linearGradient>
    <linearGradient id="edge" x1="0" y1="0" x2="1" y2="0">
      <stop offset="0" stop-color="#7B3FF2" stop-opacity="0.15"/>
      <stop offset="0.55" stop-color="#FF3D8B" stop-opacity="0.35"/>
      <stop offset="1" stop-color="#FF7A18" stop-opacity="0.20"/>
    </linearGradient>
  </defs>
  <rect width="1200" height="1500" fill="url(#bg)"/>
  <rect width="1200" height="1500" fill="url(#spot1)"/>
  <rect width="1200" height="1500" fill="url(#spot2)"/>
  <rect width="1200" height="1500" fill="url(#floor)"/>
  <rect width="1200" height="1500" filter="url(#grain)" opacity="0.55"/>

  <!-- Collection shelf -->
  <g filter="url(#shadow)">
    <rect x="230" y="520" width="740" height="680" rx="28" fill="url(#case)" stroke="#FFFFFF" stroke-opacity="0.10"/>
    <path d="M260 610 H940" stroke="url(#edge)" stroke-width="10" stroke-linecap="round" opacity="0.7"/>

    <!-- Accessory tiles -->
    <g opacity="0.95">
      <rect x="300" y="660" width="250" height="220" rx="18" fill="#0B0B0F" stroke="#FFFFFF" stroke-opacity="0.10"/>
      <rect x="650" y="660" width="250" height="220" rx="18" fill="#0B0B0F" stroke="#FFFFFF" stroke-opacity="0.10"/>
      <rect x="300" y="940" width="250" height="220" rx="18" fill="#0B0B0F" stroke="#FFFFFF" stroke-opacity="0.10"/>
      <rect x="650" y="940" width="250" height="220" rx="18" fill="#0B0B0F" stroke="#FFFFFF" stroke-opacity="0.10"/>

      <!-- Minimal icons -->
      <path d="M390 740 h70 a28 28 0 0 1 28 28 v30 a28 28 0 0 1-28 28 h-70 a28 28 0 0 1-28-28 v-30 a28 28 0 0 1 28-28Z"
        fill="none" stroke="#7B3FF2" stroke-opacity="0.45" stroke-width="10"/>
      <path d="M740 740 h70 a28 28 0 0 1 28 28 v30 a28 28 0 0 1-28 28 h-70 a28 28 0 0 1-28-28 v-30 a28 28 0 0 1 28-28Z"
        fill="none" stroke="#FF3D8B" stroke-opacity="0.40" stroke-width="10"/>
      <path d="M395 1020 h60 a30 30 0 0 1 30 30 v0 a30 30 0 0 1-30 30 h-60 a30 30 0 0 1-30-30 v0 a30 30 0 0 1 30-30Z"
        fill="none" stroke="#FF7A18" stroke-opacity="0.35" stroke-width="10"/>
      <path d="M745 1020 h60 a30 30 0 0 1 30 30 v0 a30 30 0 0 1-30 30 h-60 a30 30 0 0 1-30-30 v0 a30 30 0 0 1 30-30Z"
        fill="none" stroke="#FFFFFF" stroke-opacity="0.16" stroke-width="10"/>
    </g>
  </g>

  <g font-family="Bebas Neue, Arial, sans-serif" fill="#F2F2F7">
    <text x="80" y="160" font-size="56" letter-spacing="6" opacity="0.92">EXTRAS DE ESTADIO</text>
    <text x="80" y="210" font-size="22" letter-spacing="2" opacity="0.65">
      Acessorios apresentados como itens de colecao, organizacao minimalista e estetica refinada.
    </text>
  </g>
</svg>
